<svg id="visual" viewBox="0 0 675 900" width="675" height="900" xmlns="http://www.w3.org/2000/svg" xmlns:xlink="http://www.w3.org/1999/xlink" version="1.1"><path d="M319 900L321.3 885C323.7 870 328.3 840 328.3 810C328.3 780 323.7 750 314.5 720C305.3 690 291.7 660 285.3 630C279 600 280 570 268.3 540C256.7 510 232.3 480 235.8 450C239.3 420 270.7 390 288.3 360C306 330 310 300 305.2 270C300.3 240 286.7 210 276.2 180C265.7 150 258.3 120 269 90C279.7 60 308.3 30 322.7 15L337 0L675 0L675 15C675 30 675 60 675 90C675 120 675 150 675 180C675 210 675 240 675 270C675 300 675 330 675 360C675 390 675 420 675 450C675 480 675 510 675 540C675 570 675 600 675 630C675 660 675 690 675 720C675 750 675 780 675 810C675 840 675 870 675 885L675 900Z" fill="#f663fa"></path><path d="M414 900L402.3 885C390.7 870 367.3 840 365.3 810C363.3 780 382.7 750 383.7 720C384.7 690 367.3 660 347 630C326.7 600 303.3 570 307.5 540C311.7 510 343.3 480 348.3 450C353.3 420 331.7 390 322.8 360C314 330 318 300 331.2 270C344.3 240 366.7 210 376.8 180C387 150 385 120 368.8 90C352.7 60 322.3 30 307.2 15L292 0L675 0L675 15C675 30 675 60 675 90C675 120 675 150 675 180C675 210 675 240 675 270C675 300 675 330 675 360C675 390 675 420 675 450C675 480 675 510 675 540C675 570 675 600 675 630C675 660 675 690 675 720C675 750 675 780 675 810C675 840 675 870 675 885L675 900Z" fill="#db50dd"></path><path d="M376 900L379.5 885C383 870 390 840 403.7 810C417.3 780 437.7 750 445.7 720C453.7 690 449.3 660 445.3 630C441.3 600 437.7 570 426 540C414.3 510 394.7 480 385 450C375.3 420 375.7 390 375.2 360C374.7 330 373.3 300 373.8 270C374.3 240 376.7 210 387.5 180C398.3 150 417.7 120 419.5 90C421.3 60 405.7 30 397.8 15L390 0L675 0L675 15C675 30 675 60 675 90C675 120 675 150 675 180C675 210 675 240 675 270C675 300 675 330 675 360C675 390 675 420 675 450C675 480 675 510 675 540C675 570 675 600 675 630C675 660 675 690 675 720C675 750 675 780 675 810C675 840 675 870 675 885L675 900Z" fill="#c03cc1"></path><path d="M504 900L509.7 885C515.3 870 526.7 840 525.3 810C524 780 510 750 505 720C500 690 504 660 511.5 630C519 600 530 570 530.7 540C531.3 510 521.7 480 507.3 450C493 420 474 390 465.2 360C456.3 330 457.7 300 462.5 270C467.3 240 475.7 210 477.7 180C479.7 150 475.3 120 470.8 90C466.3 60 461.7 30 459.3 15L457 0L675 0L675 15C675 30 675 60 675 90C675 120 675 150 675 180C675 210 675 240 675 270C675 300 675 330 675 360C675 390 675 420 675 450C675 480 675 510 675 540C675 570 675 600 675 630C675 660 675 690 675 720C675 750 675 780 675 810C675 840 675 870 675 885L675 900Z" fill="#a628a6"></path><path d="M553 900L559.5 885C566 870 579 840 581.8 810C584.7 780 577.3 750 568.3 720C559.3 690 548.7 660 552.8 630C557 600 576 570 588 540C600 510 605 480 605.8 450C606.7 420 603.3 390 601.3 360C599.3 330 598.7 300 596 270C593.3 240 588.7 210 584.3 180C580 150 576 120 569 90C562 60 552 30 547 15L542 0L675 0L675 15C675 30 675 60 675 90C675 120 675 150 675 180C675 210 675 240 675 270C675 300 675 330 675 360C675 390 675 420 675 450C675 480 675 510 675 540C675 570 675 600 675 630C675 660 675 690 675 720C675 750 675 780 675 810C675 840 675 870 675 885L675 900Z" fill="#8c0f8c"></path></svg>